<svg width="65" height="33" viewBox="0 0 65 33" fill="none" xmlns="http://www.w3.org/2000/svg">
<path d="M0.00012207 32.75V29.1615C0.00012207 27.401 0.948039 25.9792 2.84387 24.8958C4.73971 23.8125 7.17721 23.2708 10.1564 23.2708C10.7432 23.2708 11.2848 23.2821 11.7814 23.3047C12.2779 23.3273 12.7744 23.3837 13.271 23.474C12.9098 24.2413 12.639 25.02 12.4585 25.8099C12.2779 26.5998 12.1876 27.4462 12.1876 28.349V32.75H0.00012207ZM16.2501 32.75V28.349C16.2501 25.4149 17.751 23.0451 20.7527 21.2396C23.7545 19.434 27.6703 18.5312 32.5001 18.5312C37.3751 18.5312 41.3022 19.434 44.2814 21.2396C47.2605 23.0451 48.7501 25.4149 48.7501 28.349V32.75H16.2501ZM52.8126 32.75V28.349C52.8126 27.4462 52.7336 26.5998 52.5756 25.8099C52.4177 25.02 52.1581 24.2413 51.797 23.474C52.2935 23.3837 52.7901 23.3273 53.2866 23.3047C53.7831 23.2821 54.3022 23.2708 54.8439 23.2708C57.9133 23.2708 60.3734 23.8125 62.2241 24.8958C64.0748 25.9792 65.0001 27.401 65.0001 29.1615V32.75H52.8126ZM32.5001 22.5938C28.889 22.5938 25.955 23.1354 23.698 24.2188C21.4411 25.3021 20.3126 26.6788 20.3126 28.349V28.6875H44.6876V28.2812C44.6876 26.6562 43.5704 25.3021 41.3361 24.2188C39.1017 23.1354 36.1564 22.5938 32.5001 22.5938ZM10.1564 21.2396C8.84734 21.2396 7.73016 20.7769 6.80481 19.8516C5.87946 18.9262 5.41679 17.809 5.41679 16.5C5.41679 15.191 5.87946 14.0738 6.80481 13.1484C7.73016 12.2231 8.84734 11.7604 10.1564 11.7604C11.4654 11.7604 12.5826 12.2231 13.5079 13.1484C14.4333 14.0738 14.896 15.191 14.896 16.5C14.896 17.809 14.4333 18.9262 13.5079 19.8516C12.5826 20.7769 11.4654 21.2396 10.1564 21.2396ZM54.8439 21.2396C53.5348 21.2396 52.4177 20.7769 51.4923 19.8516C50.567 18.9262 50.1043 17.809 50.1043 16.5C50.1043 15.191 50.567 14.0738 51.4923 13.1484C52.4177 12.2231 53.5348 11.7604 54.8439 11.7604C56.1529 11.7604 57.2701 12.2231 58.1954 13.1484C59.1208 14.0738 59.5835 15.191 59.5835 16.5C59.5835 17.809 59.1208 18.9262 58.1954 19.8516C57.2701 20.7769 56.1529 21.2396 54.8439 21.2396ZM32.5001 16.5C30.2432 16.5 28.3248 15.7101 26.7449 14.1302C25.1651 12.5503 24.3751 10.6319 24.3751 8.375C24.3751 6.07292 25.1651 4.14323 26.7449 2.58594C28.3248 1.02865 30.2432 0.25 32.5001 0.25C34.8022 0.25 36.7319 1.02865 38.2892 2.58594C39.8465 4.14323 40.6251 6.07292 40.6251 8.375C40.6251 10.6319 39.8465 12.5503 38.2892 14.1302C36.7319 15.7101 34.8022 16.5 32.5001 16.5ZM32.5001 4.3125C31.3716 4.3125 30.4124 4.69618 29.6225 5.46354C28.8326 6.2309 28.4376 7.20139 28.4376 8.375C28.4376 9.50347 28.8326 10.4627 29.6225 11.2526C30.4124 12.0425 31.3716 12.4375 32.5001 12.4375C33.6737 12.4375 34.6442 12.0425 35.4116 11.2526C36.1789 10.4627 36.5626 9.50347 36.5626 8.375C36.5626 7.20139 36.1789 6.2309 35.4116 5.46354C34.6442 4.69618 33.6737 4.3125 32.5001 4.3125Z" fill="#BFBC37"/>
</svg>
