<svg width="60" height="55" viewBox="0 0 60 55" fill="none" xmlns="http://www.w3.org/2000/svg">
<path d="M29.6786 50.7403C29.9043 50.7403 30.1638 50.6839 30.4572 50.571C30.7506 50.4582 30.9876 50.3115 31.1682 50.1309L53.9859 27.2455C54.5727 26.6587 55.0128 25.9929 55.3062 25.2481C55.5996 24.5033 55.7463 23.7473 55.7463 22.9799C55.7463 22.2125 55.5996 21.4452 55.3062 20.6778C55.0128 19.9105 54.5727 19.2334 53.9859 18.6466L41.7984 6.45907C41.2116 5.87226 40.5345 5.43216 39.7671 5.13875C38.9998 4.84535 38.2324 4.69865 37.465 4.69865C36.6977 4.69865 35.9416 4.84535 35.1968 5.13875C34.452 5.43216 33.7862 5.87226 33.1994 6.45907L31.9807 7.67782L37.465 13.2299C38.0519 13.8618 38.571 14.5954 39.0223 15.4304C39.4737 16.2655 39.6994 17.1796 39.6994 18.1726C39.6994 19.8879 39.0336 21.4 37.702 22.7091C36.3704 24.0181 34.847 24.6726 33.1317 24.6726C32.0032 24.6726 31.0666 24.5033 30.3218 24.1648C29.577 23.8263 28.8887 23.341 28.2567 22.7091L23.314 17.7664L11.0588 30.0216C10.8331 30.2473 10.6751 30.4842 10.5848 30.7325C10.4946 30.9808 10.4494 31.2403 10.4494 31.5112C10.4494 32.098 10.6413 32.5832 11.0249 32.9669C11.4086 33.3506 11.8939 33.5424 12.4807 33.5424C12.7515 33.5424 13.0111 33.4747 13.2593 33.3393C13.5076 33.2039 13.722 33.0459 13.9025 32.8653L23.2463 23.5216L26.09 26.3653L16.814 35.6414C16.5883 35.8671 16.4303 36.1153 16.34 36.3862C16.2498 36.657 16.2046 36.9278 16.2046 37.1987C16.2046 37.7403 16.4078 38.2143 16.814 38.6205C17.2203 39.0268 17.6942 39.2299 18.2359 39.2299C18.5067 39.2299 18.7663 39.1735 19.0145 39.0606C19.2628 38.9478 19.4772 38.8011 19.6578 38.6205L29.0015 29.2768L31.8453 32.1205L22.5692 41.3966C22.3887 41.5771 22.242 41.8141 22.1291 42.1075C22.0163 42.4009 21.9598 42.683 21.9598 42.9539C21.9598 43.4955 22.163 43.9695 22.5692 44.3757C22.9755 44.782 23.4494 44.9851 23.9911 44.9851C24.2619 44.9851 24.5102 44.94 24.7359 44.8497C24.9616 44.7594 25.1873 44.6014 25.413 44.3757L34.7567 35.032L37.6005 37.8757L28.2567 47.2195C28.031 47.4452 27.873 47.6934 27.7828 47.9643C27.6925 48.2351 27.6473 48.4834 27.6473 48.7091C27.6473 49.341 27.8279 49.8375 28.189 50.1987C28.5501 50.5598 29.0466 50.7403 29.6786 50.7403ZM29.6786 54.8028C28.189 54.8028 26.8574 54.2499 25.6838 53.144C24.5102 52.0381 23.8105 50.6726 23.5848 49.0476C22.0501 48.8219 20.7637 48.19 19.7255 47.1518C18.6873 46.1136 18.0553 44.8271 17.8296 43.2924C16.2949 43.0667 15.0197 42.4235 14.0041 41.3627C12.9885 40.302 12.3678 39.0268 12.1421 37.5372C10.472 37.3115 9.09526 36.6344 8.01192 35.5059C6.92859 34.3775 6.38692 33.0233 6.38692 31.4434C6.38692 30.6761 6.53362 29.9087 6.82703 29.1414C7.12043 28.374 7.56053 27.6969 8.14734 27.1101L23.314 11.9434L30.7619 19.3914C31.123 19.7525 31.518 20.0346 31.9468 20.2377C32.3756 20.4408 32.7932 20.5424 33.1994 20.5424C33.7862 20.5424 34.3392 20.2829 34.8583 19.7638C35.3774 19.2447 35.6369 18.6917 35.6369 18.1049C35.6369 17.8341 35.5579 17.5294 35.3999 17.1908C35.242 16.8523 34.9824 16.5025 34.6213 16.1414L24.939 6.45907C24.3522 5.87226 23.6751 5.43216 22.9078 5.13875C22.1404 4.84535 21.373 4.69865 20.6057 4.69865C19.8383 4.69865 19.0822 4.84535 18.3374 5.13875C17.5927 5.43216 16.9269 5.87226 16.34 6.45907L6.04838 16.7507C5.41644 17.3827 4.97633 18.0485 4.72807 18.7481C4.4798 19.4478 4.3331 20.2264 4.28796 21.0841C4.24283 21.9868 4.4121 22.8558 4.79578 23.6908C5.17946 24.5259 5.64213 25.282 6.1838 25.9591L3.27234 28.8705C2.36956 27.8775 1.63605 26.6813 1.07182 25.282C0.507582 23.8827 0.225464 22.4608 0.225464 21.0164C0.225464 19.6622 0.485013 18.3644 1.00411 17.1231C1.52321 15.8818 2.25671 14.7872 3.20463 13.8393L13.4286 3.61532C14.4216 2.62226 15.5501 1.88875 16.814 1.41479C18.0779 0.940836 19.3644 0.703857 20.6734 0.703857C21.9824 0.703857 23.2576 0.940836 24.4989 1.41479C25.7402 1.88875 26.8574 2.62226 27.8505 3.61532L29.0692 4.83407L30.288 3.61532C31.281 2.62226 32.4095 1.88875 33.6734 1.41479C34.9373 0.940836 36.2237 0.703857 37.5328 0.703857C38.8418 0.703857 40.117 0.940836 41.3583 1.41479C42.5996 1.88875 43.7168 2.62226 44.7098 3.61532L56.8296 15.7351C57.8227 16.7282 58.5675 17.8566 59.064 19.1205C59.5605 20.3844 59.8088 21.6709 59.8088 22.9799C59.8088 24.2889 59.5605 25.5641 59.064 26.8054C58.5675 28.0467 57.8227 29.1639 56.8296 30.157L34.0119 52.9747C33.4251 53.5615 32.7593 54.0129 32.0145 54.3289C31.2697 54.6448 30.4911 54.8028 29.6786 54.8028Z" fill="#BFBC37"/>
</svg>
