<svg width="55" height="55" viewBox="0 0 55 55" fill="none" xmlns="http://www.w3.org/2000/svg">
<path d="M27.7708 42.9692C28.493 42.9692 29.1024 42.721 29.5989 42.2244C30.0954 41.7279 30.3437 41.1185 30.3437 40.3963C30.3437 39.6741 30.0954 39.0647 29.5989 38.5682C29.1024 38.0717 28.493 37.8234 27.7708 37.8234C27.0486 37.8234 26.4392 38.0717 25.9427 38.5682C25.4461 39.0647 25.1979 39.6741 25.1979 40.3963C25.1979 41.1185 25.4461 41.7279 25.9427 42.2244C26.4392 42.721 27.0486 42.9692 27.7708 42.9692ZM25.401 33.0838H29.3958C29.3958 31.9102 29.5425 30.8382 29.8359 29.8677C30.1293 28.8972 31.0434 27.78 32.5781 26.5161C33.9774 25.3425 34.9704 24.1915 35.5572 23.063C36.1441 21.9345 36.4375 20.6932 36.4375 19.339C36.4375 16.9467 35.6588 15.0283 34.1015 13.5838C32.5442 12.1394 30.4791 11.4172 27.9062 11.4172C25.6944 11.4172 23.7421 11.9701 22.0494 13.076C20.3567 14.1819 19.1267 15.7053 18.3593 17.6463L21.9479 19.0005C22.4444 17.7366 23.1892 16.7548 24.1822 16.0552C25.1753 15.3555 26.3489 15.0057 27.7031 15.0057C29.2378 15.0057 30.4791 15.4232 31.427 16.2583C32.375 17.0934 32.8489 18.1654 32.8489 19.4744C32.8489 20.4675 32.5555 21.4041 31.9687 22.2843C31.3819 23.1646 30.5243 24.0786 29.3958 25.0265C28.0416 26.2001 27.0373 27.3625 26.3828 28.5135C25.7283 29.6646 25.401 31.188 25.401 33.0838ZM27.5 54.2765C23.7986 54.2765 20.3003 53.5656 17.0052 52.1437C13.71 50.7218 10.8324 48.7809 8.37235 46.3208C5.91228 43.8607 3.97131 40.9831 2.54944 37.688C1.12756 34.3928 0.416626 30.8946 0.416626 27.1932C0.416626 23.4467 1.12756 19.9258 2.54944 16.6307C3.97131 13.3356 5.91228 10.4692 8.37235 8.03174C10.8324 5.59424 13.71 3.66455 17.0052 2.24268C20.3003 0.820801 23.7986 0.109863 27.5 0.109863C31.2465 0.109863 34.7673 0.820801 38.0625 2.24268C41.3576 3.66455 44.2239 5.59424 46.6614 8.03174C49.0989 10.4692 51.0286 13.3356 52.4505 16.6307C53.8723 19.9258 54.5833 23.4467 54.5833 27.1932C54.5833 30.8946 53.8723 34.3928 52.4505 37.688C51.0286 40.9831 49.0989 43.8607 46.6614 46.3208C44.2239 48.7809 41.3576 50.7218 38.0625 52.1437C34.7673 53.5656 31.2465 54.2765 27.5 54.2765ZM27.5 50.214C33.9097 50.214 39.3489 47.9684 43.8177 43.4771C48.2864 38.9857 50.5208 33.5578 50.5208 27.1932C50.5208 20.7835 48.2864 15.3442 43.8177 10.8755C39.3489 6.40674 33.9097 4.17236 27.5 4.17236C21.1354 4.17236 15.7074 6.40674 11.2161 10.8755C6.72479 15.3442 4.47913 20.7835 4.47913 27.1932C4.47913 33.5578 6.72479 38.9857 11.2161 43.4771C15.7074 47.9684 21.1354 50.214 27.5 50.214Z" fill="#BFBC37"/>
</svg>
