<svg width="37" height="47" viewBox="0 0 37 47" fill="none" xmlns="http://www.w3.org/2000/svg">
<path d="M18.5 22.9271C19.6077 22.9271 20.553 22.5356 21.336 21.7526C22.1189 20.9696 22.5104 20.0243 22.5104 18.9167C22.5104 17.809 22.1189 16.8637 21.336 16.0807C20.553 15.2978 19.6077 14.9063 18.5 14.9063C17.3924 14.9063 16.4471 15.2978 15.6641 16.0807C14.8811 16.8637 14.4896 17.809 14.4896 18.9167C14.4896 20.0243 14.8811 20.9696 15.6641 21.7526C16.4471 22.5356 17.3924 22.9271 18.5 22.9271ZM18.5 41.8906C23.5799 37.2691 27.3325 33.0773 29.7578 29.3151C32.1832 25.553 33.3959 22.2396 33.3959 19.375C33.3959 14.8681 31.954 11.1823 29.0703 8.31772C26.1866 5.45314 22.6632 4.02084 18.5 4.02084C14.3368 4.02084 10.8134 5.45314 7.92971 8.31772C5.04603 11.1823 3.60419 14.8681 3.60419 19.375C3.60419 22.2396 4.84551 25.553 7.32815 29.3151C9.81078 33.0773 13.5347 37.2691 18.5 41.8906ZM18.5 46.4167C12.3507 41.184 7.75783 36.3238 4.72137 31.8359C1.68492 27.3481 0.166687 23.1945 0.166687 19.375C0.166687 13.6458 2.00957 9.08161 5.69533 5.6823C9.3811 2.283 13.6493 0.583344 18.5 0.583344C23.3507 0.583344 27.6189 2.283 31.3047 5.6823C34.9905 9.08161 36.8334 13.6458 36.8334 19.375C36.8334 23.1945 35.3151 27.3481 32.2787 31.8359C29.2422 36.3238 24.6493 41.184 18.5 46.4167Z" fill="white"/>
</svg>
