<svg width="23" height="23" viewBox="0 0 23 23" fill="none" xmlns="http://www.w3.org/2000/svg">
<path d="M17.1815 8.49924C17.1815 3.8124 13.3691 0 8.68284 0C3.9966 0 0.184204 3.8124 0.184204 8.49924C0.184204 13.1861 3.996 16.9973 8.68224 16.9973C13.3691 16.9973 17.1815 13.1855 17.1815 8.49924ZM8.68284 14.8637C5.17299 14.8637 2.31837 12.0079 2.31837 8.49924C2.31837 4.98939 5.1742 2.13357 8.68284 2.13357C12.1927 2.13357 15.0479 4.98939 15.0479 8.49924C15.0479 12.0091 12.1921 14.8637 8.68284 14.8637ZM22.8158 21.1213L20.9371 23L14.4072 16.4713L16.2859 14.5926L22.8158 21.1213Z" fill="white"/>
</svg>
